# xmcd CD database file
#
# Track frame offsets:
#	150
#	17237
#	44250
#	68507
#	95762
#	112955
#	144572
#	173350
#	189947
#	208615
#	227370
#	261935
#	283190
#	315650
#
# Disc length: 4795 seconds
#
# Revision: 2
# Processed by: cddbd v1.5PL3 Copyright (c) Steve Scherf et al.
# Submitted via: CDex 1.51
#
DISCID=bb12b90e
DTITLE=Various Artist - Blue Note Revisited
DYEAR=2004
DGENRE=Jazz
TTITLE0=Oriental Folk Song - LA Funk Mob
TTITLE1=La Malanga - Kenny Dope
TTITLE2=Kudu - Kyoto Jazz Massive
TTITLE3=Lansanna's Priestess - DJ Spinna
TTITLE4=Won't You Open Up Your Senses - 4 Hero
TTITLE5=Los Alamitos LATINFUNKLOVESONG - Bugz In The Attic
TTITLE6=Young Warrior - Madlib
TTITLE7=Oblighetto - J Dilla
TTITLE8=The Emperor - DJ Cam Featuring Erik Truffaz
TTITLE9=Footprints (Dub) - DJ Mehdi
TTITLE10=Song Of Will - Jazzanova
TTITLE11=A Time To Remember - Osunlade
TTITLE12=Caravan - Herbert
TTITLE13=Hidden Track 
EXTD=YEAR: 2004
EXTT0=
EXTT1=
EXTT2=
EXTT3=
EXTT4=
EXTT5=
EXTT6=
EXTT7=
EXTT8=
EXTT9=
EXTT10=
EXTT11=
EXTT12=
EXTT13=
PLAYORDER=
